<?xml version="1.0" standalone="no"?>
<!DOCTYPE svg PUBLIC "-//W3C//DTD SVG 20010904//EN"
 "http://www.w3.org/TR/2001/REC-SVG-20010904/DTD/svg10.dtd">
<svg version="1.0" xmlns="http://www.w3.org/2000/svg"
 width="700.000000pt" height="700.000000pt" viewBox="0 0 700.000000 700.000000"
 preserveAspectRatio="xMidYMid meet">
<metadata>
Created by potrace 1.14, written by Peter Selinger 2001-2017
</metadata>
<g transform="translate(0.000000,700.000000) scale(0.100000,-0.100000)"
fill="#000000" stroke="none">
<path d="M3238 6996 c-1 -2 -41 -6 -88 -10 -47 -4 -96 -8 -110 -10 -14 -2 -45
-7 -70 -10 -249 -31 -597 -124 -830 -223 -295 -124 -538 -263 -777 -444 -149
-113 -228 -183 -368 -324 -122 -123 -135 -137 -215 -235 -25 -30 -47 -57 -51
-60 -11 -9 -184 -256 -214 -306 -86 -142 -186 -335 -240 -464 -15 -36 -33 -78
-41 -95 -32 -69 -124 -371 -150 -490 -22 -100 -41 -205 -49 -270 -3 -27 -8
-63 -11 -80 -13 -75 -15 -125 -18 -345 -2 -129 0 -273 4 -320 10 -116 22 -221
26 -245 2 -11 6 -36 10 -55 3 -19 9 -55 14 -80 6 -25 12 -56 14 -70 17 -97 86
-338 134 -465 178 -476 434 -878 786 -1231 78 -78 175 -170 216 -204 l75 -64
3 547 2 547 -48 67 c-228 321 -398 754 -447 1139 -4 27 -10 76 -15 109 -13 96
-9 460 6 565 7 52 16 115 19 139 11 87 65 302 100 401 9 25 18 52 20 60 2 8
24 63 49 123 316 752 956 1316 1749 1542 116 33 235 60 322 71 22 3 51 7 65
10 57 9 213 18 335 18 164 0 303 -10 425 -30 19 -4 49 -8 65 -11 106 -15 326
-76 468 -129 l67 -26 0 -1266 c-1 -1050 -4 -1281 -15 -1346 -56 -311 -257
-581 -541 -725 -65 -33 -193 -78 -245 -86 -19 -3 -56 -9 -84 -13 -58 -9 -197
-8 -270 2 -141 20 -309 85 -418 163 -27 19 -52 31 -55 28 -4 -4 -7 -200 -8
-437 l-1 -430 42 -18 c41 -18 220 -64 285 -74 151 -23 370 -28 520 -13 103 11
277 50 388 87 280 93 546 276 750 515 188 220 356 587 407 890 10 56 17 107
25 170 4 39 9 732 9 1540 l1 1470 -37 20 c-21 10 -50 27 -64 37 -90 60 -453
221 -619 274 -90 29 -252 74 -289 80 -14 3 -39 9 -56 14 -16 5 -43 11 -60 13
-16 3 -57 10 -90 16 -33 6 -80 13 -105 16 -25 2 -61 7 -80 10 -19 3 -57 8 -85
11 -54 6 -531 14 -537 10z"/>
<path d="M5710 5554 l0 -546 28 -37 c49 -62 157 -241 209 -346 145 -289 238
-604 270 -915 10 -97 10 -464 0 -555 -79 -713 -425 -1348 -977 -1793 -174
-140 -320 -232 -525 -331 -522 -253 -1123 -329 -1700 -215 -139 27 -257 62
-418 121 l-67 25 1 1271 c1 1225 1 1275 20 1367 41 195 133 365 273 506 128
128 295 225 461 268 282 71 586 19 825 -143 25 -17 47 -31 50 -31 3 0 6 196 5
437 l0 436 -41 17 c-46 20 -225 65 -299 76 -27 3 -59 9 -70 11 -49 11 -350 9
-447 -2 -331 -40 -662 -178 -903 -377 -131 -109 -277 -279 -373 -435 -108
-174 -215 -445 -246 -623 -3 -14 -9 -50 -15 -80 -6 -30 -14 -73 -17 -95 -4
-22 -9 -719 -11 -1550 l-3 -1510 107 -60 c201 -111 367 -185 583 -260 93 -32
336 -99 395 -110 17 -2 41 -7 55 -10 49 -10 146 -26 190 -31 25 -3 55 -7 67
-10 122 -25 693 -25 820 0 12 3 48 7 79 11 152 16 413 78 615 145 649 216
1235 636 1644 1176 41 54 79 104 83 109 4 6 29 42 54 80 196 301 337 606 433
936 36 123 89 365 99 454 3 28 9 66 11 85 13 88 17 150 19 365 3 235 -1 318
-29 530 -10 77 -21 136 -47 250 -16 72 -31 141 -34 155 -10 46 -86 275 -126
374 -170 429 -432 824 -767 1156 -129 128 -263 250 -277 250 -2 0 -4 -246 -4
-546z"/>
</g>
</svg>
